<svg 
xmlns="http://www.w3.org/2000/svg" 
width="37.068" height="37.105"
viewBox="0 0 37.068 37.105">
	<path d="M700.2 2372.926h-3.363v-2.058a1.789 1.789 0 1 0-3.577-.1v2.161h-14.45v-2.058a1.792 1.792 0 0 0-3.018-1.355 1.789 1.789 0 0 0-.559 1.251v2.161h-3.363a4.374 4.374 0 0 0-4.367 4.367v24.473a4.374 4.374 0 0 0 4.367 4.366h28.33a4.374 4.374 0 0 0 4.367-4.366v-24.473a4.374 4.374 0 0 0-4.367-4.369zm.786 28.836a.792.792 0 0 1-.786.786h-28.33a.792.792 0 0 1-.79-.786v-16.242h29.907zm0-19.822H671.08v-4.64a.792.792 0 0 1 .786-.789h3.363v2.058a1.789 1.789 0 1 0 3.577.1V2376.507h14.448v2.058a1.789 1.789 0 0 0 1.737 1.844h.05a1.793 1.793 0 0 0 1.79-1.74v-2.162h3.369a.79.79 0 0 1 .79.786z" transform="translate(-667.5 -2369.027)"/>
	<path id="Контур_3367" data-name="Контур 3367" d="m713.029 2426.1-10.312 10.313a1.806 1.806 0 0 1-2.53 0l-5.153-5.156a1.791 1.791 0 0 1-.01-2.453 1.787 1.787 0 0 1 2.53-.087l3.9 3.9 9.038-9.038a1.8 1.8 0 0 1 2.493-.01 1.805 1.805 0 0 1 .044 2.531z" transform="translate(-685.495 -2404.988)"/>
</svg>
