<svg 
	xmlns="http://www.w3.org/2000/svg" 
	width="86.7" height="40" 
	viewBox="0 0 86.7 40">
	<path d="M0,16V27.36a5.09,5.09,0,0,0,5.08,5.08H7.43l0,.32a8.38,8.38,0,0,0,16.6,0l0-.32H59l0,.32a8.38,8.38,0,0,0,16.6,0l0-.32h4a7.13,7.13,0,0,0,6.53-9.83L84.65,19a8.18,8.18,0,0,0-6-4.81h0L67,11.36H66.9A6.81,6.81,0,0,1,64,10.08L53.91,2.41A10.3,10.3,0,0,0,47.55,0H20a9.5,9.5,0,0,0-5.82,2L4.32,9.65C1.91,11.53,0,13,0,16Zm24.59-5.32a1,1,0,0,1-1,1H11.12a5.74,5.74,0,0,1-3-.85l-.45-.27,8.14-6.35A6.81,6.81,0,0,1,20,2.69h4.63ZM60,10.4l-.19.29A3.07,3.07,0,0,1,57.27,12H36.84a1,1,0,0,1-1-1V2.69H47.55a6.79,6.79,0,0,1,4.09,1.38Zm1.6,21.22a5.77,5.77,0,0,1,5.7-5.69h.27A5.76,5.76,0,0,1,73,31.62a5.69,5.69,0,1,1-11.38,0Zm-51.52,0a5.69,5.69,0,0,1,11.38,0,5.69,5.69,0,0,1-11.38,0ZM2.69,16c0-1.47,1-2.39,2.57-3.62l.23-.18.23.19a8.48,8.48,0,0,0,5.4,1.93H23.63a3.65,3.65,0,0,0,3.65-3.64V2.69h5.91v8.39a3.66,3.66,0,0,0,3.65,3.65H57.27a5.76,5.76,0,0,0,4.66-2.4l.22-.3.3.22A9.35,9.35,0,0,0,66.37,14h0l11.7,2.85.08,0a5.41,5.41,0,0,1,3.63,2.49l.34.56H80.32a1.35,1.35,0,1,0,0,2.69h2.92l.44,1a4.29,4.29,0,0,1-.42,4.11,4.35,4.35,0,0,1-3.63,2H75.46l-.07-.27a8.38,8.38,0,0,0-16.2,0l-.07.27H24l-.08-.27a8.49,8.49,0,0,0-8.1-6.24,8.5,8.5,0,0,0-8.1,6.24l-.07.27H5.09a2.39,2.39,0,0,1-2.4-2.39Z"/><path d="M38.59,22.6a1.35,1.35,0,0,0,0-2.69H35.14a1.35,1.35,0,1,0,0,2.69Z"/>
</svg>