<svg 
xmlns="http://www.w3.org/2000/svg" 
width="37.622" height="37.624"
viewBox="0 0 37.622 47.624">
    <path d="M52.5 102.92a3.131 3.131 0 0 1-3.128-3.128V68.424A3.131 3.131 0 0 1 52.5 65.3h19.145a3.107 3.107 0 0 1 2.212.916l3.154 3.154a3.107 3.107 0 0 1 .916 2.211v9.361l3.726-3.729a3.128 3.128 0 1 1 4.423 4.423l-8.149 8.156v10a3.131 3.131 0 0 1-3.127 3.128zm0-35.829a1.334 1.334 0 0 0-1.332 1.332v31.37a1.334 1.334 0 0 0 1.332 1.332h22.3a1.334 1.334 0 0 0 1.332-1.332v-8.208l-.506.506a.9.9 0 0 1-.351.217l-4.731 1.577a.9.9 0 0 1-1.135-1.135l1.577-4.731a.9.9 0 0 1 .217-.351l1.576-1.576-.037.026c.079-.068.484-.474 3.327-3.319l.064-.064v-8.954h-5.794a.9.9 0 0 1-.9-.9v-5.79zm20.122 21.7-.942 2.826 2.826-.942.792-.792L73.413 88zm2.062-2.062 1.884 1.884 5.667-5.672-1.885-1.888zm9.182-8.636a1.324 1.324 0 0 0-.942.39l-1.3 1.3 1.876 1.885 1.3-1.3a1.332 1.332 0 0 0-.942-2.274zm-12.628-6.1h4.895v-.264a1.383 1.383 0 0 0-.39-1.087l-3.154-3.154a1.357 1.357 0 0 0-1.012-.391h-.339z" transform="translate(-49.371 -65.296)"/>
    <rect width="17.442" height="1.793" rx=".897" transform="translate(5.557 11.945)"/>
    <rect width="17.442" height="1.793" rx=".897" transform="translate(5.557 17.407)"/>
</svg>
