<svg xmlns="http://www.w3.org/2000/svg" 
       width="42.161" height="25.305" 
       viewBox="0 0 42.161 25.305">
    <path d="M28.636,64H22.977a2.107,2.107,0,0,0-1.423.553l-6.476,5.929c-.007.007-.013.02-.02.026a2.62,2.62,0,0,0-.138,3.689,2.747,2.747,0,0,0,3.7.178c.007-.007.02-.007.026-.013l5.263-4.822a1.054,1.054,0,1,1,1.423,1.555L23.61,72.669,33.2,80.456a4.745,4.745,0,0,1,.52.507V68.216l-3.6-3.6A2.093,2.093,0,0,0,28.636,64Zm7.2,4.229v14.75a2.106,2.106,0,0,0,2.108,2.108h4.216V68.229ZM39,82.979a1.054,1.054,0,1,1,1.054-1.054A1.057,1.057,0,0,1,39,82.979ZM0,85.08H4.216a2.106,2.106,0,0,0,2.108-2.108V68.229H0Zm3.162-4.209a1.054,1.054,0,1,1-1.054,1.054A1.057,1.057,0,0,1,3.162,80.871ZM31.877,82.1l-9.835-7.984-1.976,1.812a4.742,4.742,0,0,1-6.41-6.989L19.045,64h-5.52a2.1,2.1,0,0,0-1.489.619l-3.6,3.6v14.75H9.638l5.962,5.4a4.215,4.215,0,0,0,5.929-.613l.013-.013,1.179,1.021a2.448,2.448,0,0,0,3.445-.356l2.069-2.543.356.29a2.1,2.1,0,0,0,2.964-.31l.626-.771a2.112,2.112,0,0,0-.3-2.971Z" transform="translate(0 -64)"/>
  </svg>