<svg 
	xmlns="http://www.w3.org/2000/svg" 
	width="65.911" height="55.528"
	viewBox="0 0 65.911 55.528">
		<path data-name="ик руки" d="m1999.818 77.723-2.3-2.292a4.357 4.357 0 0 0-5.155-.736l-4.331-4.326.211-.21a4.508 4.508 0 0 0-2.266-7.6 4.548 4.548 0 0 0 .179-1.265 4.5 4.5 0 0 0-3.584-4.413 4.5 4.5 0 0 0-3.4-5.677 4.5 4.5 0 0 0-4.812-5.747l-8.583-1.624c-1.309-.249-2.943-.413-3.975.528a2.438 2.438 0 0 0-.2.2 4.524 4.524 0 0 0-4.746 1.044 4.471 4.471 0 0 0-1.318 3.189 4.566 4.566 0 0 0 .179 1.266 4.513 4.513 0 0 0-3.4 5.677 4.51 4.51 0 0 0-2.8 6.961 4.508 4.508 0 0 0-1.733 7.459l.21.209-4.331 4.324a4.352 4.352 0 0 0-4.922.853l-2.3 2.293a4.345 4.345 0 0 0 0 6.138l2.869 2.867a1.155 1.155 0 0 0 .126.109l8.034 8.034.044.047 2.872 2.872a4.356 4.356 0 0 0 6.135 0l2.3-2.3a4.351 4.351 0 0 0 .61-5.374l4.874-4.869a.1.1 0 0 0 .016-.016c.558-.576 2.113-.469 3.616-.365a18.758 18.758 0 0 0 3.422.023l5.339 5.331a4.35 4.35 0 0 0 .737 5.151l2.3 2.3a4.349 4.349 0 0 0 6.135 0l13.945-13.928a4.347 4.347 0 0 0 0-6.138zm-36.2-31.447a4.432 4.432 0 0 1 1.679.114l5.643 1.069-3.377 3.376a8.2 8.2 0 0 1-2.024-1.47 5.991 5.991 0 0 1-1.916-2.958v-.1zm-4.917 1.175a1.918 1.918 0 0 1 2.428-.23 9.317 9.317 0 0 0 2.611 4.023 9.646 9.646 0 0 0 3.749 2.323 1.909 1.909 0 0 1-2.925 2.433l-5.867-5.857a1.917 1.917 0 0 1 0-2.7zm-3.4 5.677a1.92 1.92 0 0 1 2.7 0l4.726 4.714a1.912 1.912 0 0 1-2.707 2.7l-3.584-3.584-.018-.016-1.122-1.12a1.912 1.912 0 0 1 0-2.7zm-3.411 5.672a1.923 1.923 0 0 1 2.695-.009l3.6 3.593a1.9 1.9 0 0 1-1.352 3.25 1.91 1.91 0 0 1-1.354-.554l-1.3-1.3-2.289-2.28a1.916 1.916 0 0 1 0-2.7zm-2.266 6.819a1.923 1.923 0 0 1 2.707 0l1.306 1.3a1.909 1.909 0 0 1-2.707 2.694l-.163-.163a.024.024 0 0 1-.006-.006l-.008-.006-1.128-1.123a1.912 1.912 0 0 1 0-2.692zm7.361 28.145-2.3 2.294a1.747 1.747 0 0 1-2.46 0l-2.869-2.87a1.115 1.115 0 0 0-.1-.089l-9.2-9.2-1.776-1.773a1.744 1.744 0 0 1 0-2.455l2.3-2.293a1.74 1.74 0 0 1 2.121-.26 1.3 1.3 0 0 0 .165.2 1.312 1.312 0 0 0 .374.26l13.188 13.169a1.273 1.273 0 0 0 .628.634 1.741 1.741 0 0 1-.073 2.376zm11.134-11.377c-2.093-.146-4.257-.3-5.657 1.141l-4.792 4.787-11.984-11.966 4.241-4.233a4.512 4.512 0 0 0 6.868-3.847v-.029h.033a4.5 4.5 0 0 0 4.51-4.5v-.035h.035a4.5 4.5 0 0 0 4.51-4.539h.034a4.512 4.512 0 0 0 3.851-6.859l3.716-3.715a1.907 1.907 0 0 1 .977-.521q.057-.007.115-.019a1.907 1.907 0 0 1 1.619 3.236l-1.132 1.127-.011.011-1.3 1.3a1.3 1.3 0 0 0 1.839 1.84l1.136-1.134.172-.172a1.916 1.916 0 0 1 2.7.007 1.908 1.908 0 0 1 0 2.7l-1.139 1.141-1.3 1.3a1.3 1.3 0 1 0 1.835 1.844l1.31-1.3a1.91 1.91 0 0 1 2.7 2.7l-2.27 2.271a1.3 1.3 0 0 0 1.84 1.84l1.112-1.113.02-.017a1.909 1.909 0 0 1 2.7 2.7l-1.132 1.13-1.794 1.792a.77.77 0 0 0-.053.057l-8.991 8.991a1.169 1.169 0 0 0-.134.116l-1.157 1.156c-1.106 1.088-3.098.95-5.026.816zm6.005 1.7a5.2 5.2 0 0 0 .855-.688l1.151-1.151 9.1-9.1a.888.888 0 0 0 .082-.074l.878-.877 4.208 4.2-11.98 11.983zm23.855-2.073-13.945 13.928a1.747 1.747 0 0 1-2.459 0l-2.3-2.3a1.741 1.741 0 0 1 0-2.451l13.944-13.928a1.75 1.75 0 0 1 2.46 0l2.3 2.292a1.745 1.745 0 0 1 0 2.455z" transform="translate(-1935.176 -43.64)"/>
</svg>
