<svg xmlns="http://www.w3.org/2000/svg" 
       width="31" height="30.012" 
       viewBox="0 0 31 30.012">
    <path d="M30.611,19.533a1.478,1.478,0,0,0-.121-2.115L16.636,5.3a1.727,1.727,0,0,0-2.253.026L.482,18.064a1.47,1.47,0,0,0-.067,2.112l.349.363a1.52,1.52,0,0,0,2.086.16l1.039-.93V33.39A1.512,1.512,0,0,0,5.4,34.9H10.82a1.512,1.512,0,0,0,1.512-1.512V23.86h6.912V33.39A1.429,1.429,0,0,0,20.664,34.9h5.743a1.512,1.512,0,0,0,1.512-1.512V19.96l.641.563c.353.311,1.1.062,1.658-.557Z" transform="translate(0 -4.89)"/>
  </svg>