<svg xmlns="http://www.w3.org/2000/svg" 
       width="20.89" height="20.89" 
       viewBox="0 0 20.89 20.89">
    <path d="M10.445,1.857a32.026,32.026,0,0,1,4.178.116,5.383,5.383,0,0,1,1.973.348,4.076,4.076,0,0,1,1.973,1.973,5.383,5.383,0,0,1,.348,1.973c0,1.044.116,1.393.116,4.178a32.026,32.026,0,0,1-.116,4.178,5.383,5.383,0,0,1-.348,1.973A4.076,4.076,0,0,1,16.6,18.569a5.383,5.383,0,0,1-1.973.348c-1.044,0-1.393.116-4.178.116a32.026,32.026,0,0,1-4.178-.116,5.383,5.383,0,0,1-1.973-.348A4.076,4.076,0,0,1,2.321,16.6a5.383,5.383,0,0,1-.348-1.973c0-1.044-.116-1.393-.116-4.178a32.026,32.026,0,0,1,.116-4.178,5.383,5.383,0,0,1,.348-1.973,4.168,4.168,0,0,1,.812-1.161,1.962,1.962,0,0,1,1.161-.812,5.383,5.383,0,0,1,1.973-.348,32.026,32.026,0,0,1,4.178-.116m0-1.857A34.291,34.291,0,0,0,6.151.116,7.165,7.165,0,0,0,3.6.58,4.543,4.543,0,0,0,1.741,1.741,4.543,4.543,0,0,0,.58,3.6,5.288,5.288,0,0,0,.116,6.151,34.291,34.291,0,0,0,0,10.445a34.291,34.291,0,0,0,.116,4.294A7.165,7.165,0,0,0,.58,17.292a4.543,4.543,0,0,0,1.161,1.857A4.543,4.543,0,0,0,3.6,20.309a7.165,7.165,0,0,0,2.553.464,34.292,34.292,0,0,0,4.294.116,34.291,34.291,0,0,0,4.294-.116,7.165,7.165,0,0,0,2.553-.464,4.869,4.869,0,0,0,3.017-3.017,7.165,7.165,0,0,0,.464-2.553c0-1.161.116-1.509.116-4.294a34.292,34.292,0,0,0-.116-4.294A7.165,7.165,0,0,0,20.309,3.6a4.543,4.543,0,0,0-1.161-1.857A4.543,4.543,0,0,0,17.292.58,7.165,7.165,0,0,0,14.739.116,34.291,34.291,0,0,0,10.445,0m0,5.106a5.253,5.253,0,0,0-5.338,5.338,5.338,5.338,0,1,0,5.338-5.338m0,8.82a3.419,3.419,0,0,1-3.482-3.482,3.419,3.419,0,0,1,3.482-3.482,3.419,3.419,0,0,1,3.482,3.482,3.419,3.419,0,0,1-3.482,3.482M16.015,3.6a1.277,1.277,0,1,0,1.277,1.277A1.288,1.288,0,0,0,16.015,3.6"/>
  </svg>