<svg xmlns="http://www.w3.org/2000/svg" 
       width="67.145" height="67.145" 
       viewBox="0 0 67.145 67.145">
    <path d="M2743.591,693.456a14.5,14.5,0,1,0-26.573,8.033l9.87,15.481a4.069,4.069,0,0,0-1.581,1.959h-36.189a3.788,3.788,0,1,1,0-7.577h15.676a6.662,6.662,0,0,0,0-13.324h-10.061a4.072,4.072,0,0,0-1.613-1.979l9.907-16.254a14.5,14.5,0,1,0-24.162,0l9.91,16.258a4.049,4.049,0,1,0,5.958,4.853h10.061a3.788,3.788,0,1,1,0,7.577h-15.676a6.662,6.662,0,0,0,0,13.324H2725.3a4.049,4.049,0,1,0,5.99-4.833l9.868-15.479A14.445,14.445,0,0,0,2743.591,693.456Zm-62.318-15.234a11.626,11.626,0,1,1,19.346,0l-.031.05-9.642,15.819Zm9.673,22.419a1.176,1.176,0,1,1,1.176-1.176A1.178,1.178,0,0,1,2690.946,700.641Zm38.144,20.9a1.176,1.176,0,1,1,1.175-1.176A1.178,1.178,0,0,1,2729.091,721.542Zm9.672-21.633-9.672,15.172-9.673-15.174a11.626,11.626,0,1,1,19.345,0Z" transform="translate(-2676.446 -657.271)"/><g transform="translate(7.838 7.838)"><path d="M2743.109,730.595a6.662,6.662,0,1,1,6.662-6.662A6.67,6.67,0,0,1,2743.109,730.595Zm0-10.451a3.788,3.788,0,1,0,3.788,3.788A3.793,3.793,0,0,0,2743.109,720.144Z" transform="translate(-2736.447 -717.27)"/></g><g transform="translate(45.982 29.523)"><path d="M3035.109,896.595a6.662,6.662,0,1,1,6.662-6.662A6.67,6.67,0,0,1,3035.109,896.595Zm0-10.451a3.788,3.788,0,1,0,3.789,3.788A3.792,3.792,0,0,0,3035.109,886.144Z" transform="translate(-3028.447 -883.27)"/>
  </svg>