<svg xmlns="http://www.w3.org/2000/svg" width="27" height="27" viewBox="0 0 27 27"><path d="M23.25,14.5,30,7.75,23.25,1V5.05h-5.4v5.4h5.4Zm2.7,6.075a15.336,15.336,0,0,1-4.819-.77,1.378,1.378,0,0,0-1.377.324l-2.97,2.97a20.311,20.311,0,0,1-8.9-8.9l2.97-2.984a1.3,1.3,0,0,0,.337-1.35,15.337,15.337,0,0,1-.769-4.82A1.354,1.354,0,0,0,9.075,3.7H4.35A1.354,1.354,0,0,0,3,5.05,22.948,22.948,0,0,0,25.95,28a1.354,1.354,0,0,0,1.35-1.35V21.925A1.354,1.354,0,0,0,25.95,20.575Z" transform="translate(-3 -1)"/></svg>