<svg 
	xmlns="http://www.w3.org/2000/svg" 
	width="44.528" height="35.831"
	viewBox="0 0 44.528 35.831">
	<path id="Контур_3380" data-name="Контур 3380" class="cls-1" d="M1561.031 194.7a4.789 4.789 0 0 0-.1-.249.042.042 0 0 1-.005-.013 6.801 6.801 0 0 0-.1-.233l-.06-.135a6.978 6.978 0 0 0-.099-.213.235.235 0 0 0-.019-.04 7.454 7.454 0 0 0-.155-.308v-.008l-.087-.163-.094-.169-.014-.025a8.888 8.888 0 0 0-.124-.21l-.01-.017a11.03 11.03 0 0 0-5.275-4.5 10.969 10.969 0 0 0-8.281.024c-.029.012-.057.023-.085.037a10.963 10.963 0 0 0-5.827 5.815 11.021 11.021 0 0 0-.255 7.911.039.039 0 0 1 0 .01c.027.077.055.153.084.23 0 .007.005.014.008.022l.069.177c.024.059.052.13.08.195l.052.123q.052.119.106.235a11.044 11.044 0 0 0 5.318 5.318c.078.037.156.072.235.106l.122.052.191.078.182.071h.012a11.019 11.019 0 0 0 7.746 0l.019-.007c.059-.023.118-.045.177-.07s.13-.052.195-.08l.123-.052c.075-.032.149-.066.224-.1a11.037 11.037 0 0 0 5.161-4.976 8.921 8.921 0 0 0 .219-.456c.06-.131.116-.264.17-.4.033-.083.065-.164.1-.248a11.029 11.029 0 0 0-.003-7.732zm-1.488 6.743a.057.057 0 0 0 0 .011c-.043.13-.088.257-.135.384l-.077.2-.017.043a5.738 5.738 0 0 1-.049.116 3.816 3.816 0 0 1-.076.174 9.211 9.211 0 0 1-4.612 4.613c-.06.028-.12.054-.18.079s-.117.05-.177.073l-.14.055-.051.02-.2.071a9.22 9.22 0 0 1-6.1 0 6.186 6.186 0 0 1-.176-.063l-.1-.037-.089-.035-.138-.057-.054-.023a4.137 4.137 0 0 1-.2-.09 9.208 9.208 0 0 1-4.683-4.809 3.367 3.367 0 0 1-.071-.175c-.012-.028-.024-.057-.034-.086s-.027-.07-.04-.1-.03-.081-.044-.122l-.027-.077a3.087 3.087 0 0 1-.051-.154 9.048 9.048 0 0 1-.377-1.653c.026.2.061.392.1.585a9.221 9.221 0 0 1 5.484-10.307 9.225 9.225 0 0 1 11.715 4.23c.025.047.05.095.073.143s.048.1.071.144c.032.065.063.13.092.2l.066.15c.022.05.051.117.074.177l.082.209a9.214 9.214 0 0 1 .139 6.128zm-17.947-2.081c.011.133.026.265.043.4a6.46 6.46 0 0 1-.039-.398z" transform="translate(-1523.125 -177.881)"/>
	<path id="Контур_3389" data-name="Контур 3389" class="cls-1" d="M1590.9 245.887a7.131 7.131 0 1 0-7.131-7.131 7.139 7.139 0 0 0 7.131 7.131zm0-12.523a5.392 5.392 0 1 1-5.392 5.392 5.4 5.4 0 0 1 5.392-5.393z" transform="translate(-1563.248 -218.057)"/>
	<path id="Контур_3390" data-name="Контур 3390" class="cls-1" d="M1387.883 81.19h-2.646l-3.037-5.139a.87.87 0 0 0-.749-.427h-12.06a.869.869 0 0 0-.749.427l-3.036 5.139h-4.97v-1.044a3.131 3.131 0 1 0-6.262 0v1.044h-2.2a4.416 4.416 0 0 0-4.411 4.411v21.444a4.416 4.416 0 0 0 4.411 4.411h35.707a4.416 4.416 0 0 0 4.411-4.411V85.6a4.416 4.416 0 0 0-4.411-4.411zm-17.995-3.827h11.067l2.261 3.827h-15.589zm-13.774 2.783a1.392 1.392 0 0 1 2.783 0v1.044h-2.783zm34.44 26.9a2.674 2.674 0 0 1-2.671 2.671h-35.707a2.675 2.675 0 0 1-2.671-2.671V85.6a2.674 2.674 0 0 1 2.671-2.671h35.707a2.674 2.674 0 0 1 2.671 2.671v21.444z" transform="translate(-1347.766 -75.624)"/>
	<path id="Контур_3391" data-name="Контур 3391" class="cls-1" d="M1656.642 275.863a1.7 1.7 0 0 1 1.7 1.7.87.87 0 1 0 1.739 0 3.439 3.439 0 0 0-3.435-3.435.87.87 0 0 0 0 1.739z" transform="translate(-1628.986 -256.861)"/>
	<path id="Контур_3392" data-name="Контур 3392" class="cls-1" d="M1429.159 221.624h-4.522a.87.87 0 1 0 0 1.739h4.522a.87.87 0 1 0 0-1.739z" transform="translate(-1417.157 -208.926)"/>
</svg>
