<svg xmlns="http://www.w3.org/2000/svg" width="33" height="30.944" viewBox="0 0 33 30.944"><path d="M1126.35,1829.2l-3.66-4.112.51-5.442-5.415-1.213-2.835-4.7-5.1,2.155-5.1-2.155-2.835,4.7-5.415,1.2.51,5.442-3.66,4.13,3.66,4.112-.51,5.442,5.415,1.213,2.835,4.7,5.1-2.155,5.1,2.144,2.835-4.7,5.415-1.213-.51-5.442Zm-14.869,8.153h-3.271v-3.2h3.271Zm1.411-7.492-.791.754a1.917,1.917,0,0,0-.81,1.554v.731H1108.4v-1.625a2.711,2.711,0,0,1,.932-2.309l1.072-1.013c.955-.9,1.528-1.485,1.528-2.591a1.863,1.863,0,0,0-3.7-.119h-3.155c0-2.921,2.293-4.358,5.017-4.358,2.8,0,5.184,1.437,5.184,4.5.005,1.886-1.068,3.205-2.382,4.473Z" transform="translate(-1093.35 -1813.726)"/></svg>