<svg 
	xmlns="http://www.w3.org/2000/svg" 
	width="68.508" height="66.883" 
	viewBox="0 0 68.508 66.883">
	<path d="M4498.988,689.028a9.578,9.578,0,0,0-9.484,8.239h-14.958a5.319,5.319,0,0,0-10.294,0H4453.89a10.528,10.528,0,1,1,0-21.057h3.48a5.319,5.319,0,0,0,10.242,0h15.957a5.319,5.319,0,0,0,10.241,0h1.844l.007,0h.258a13.3,13.3,0,0,0,4.678-.965l.015.007.207-.093c.395-.169.787-.359,1.168-.568l.183-.1c.049-.026.1-.054.133-.076.149-.086.285-.17.417-.253a13.429,13.429,0,0,0-7.178-24.778h-12.385a5.318,5.318,0,0,0-10.2,0H4459.9a9.579,9.579,0,1,0,.016,2.9h13a5.319,5.319,0,0,0,10.262,0h12.355a10.527,10.527,0,0,1,5.439,19.54c-.055.034-.11.067-.172.1a10.481,10.481,0,0,1-4.771,1.4c-.1,0-.192-.008-.282-.009s-.189,0-.284,0H4493.8a5.318,5.318,0,0,0-10.225,0H4467.6a5.318,5.318,0,0,0-10.226,0h-3.488a13.427,13.427,0,1,0,0,26.854h10.426a5.317,5.317,0,0,0,10.167,0h15.055a9.579,9.579,0,1,0,9.451-11.138Zm-45.466-35.1-3.128,2.987v-3.776h-4.906v-4.4h4.906v-3.776l3.128,2.987,3.126,2.987Zm45.466,51.9a7.228,7.228,0,1,1,7.229-7.228A7.236,7.236,0,0,1,4498.988,705.835Z" transform="translate(-4440.461 -641.303)"/>
</svg>