<svg xmlns="http://www.w3.org/2000/svg" 
       width="30.433" 
       height="17.223" 
       viewBox="0 0 30.433 17.223">
    <path d="M29.174,34.895a41.215,41.215,0,0,0-2.981-3c-.91-.888-.968-1.4-.236-2.428.8-1.118,1.657-2.194,2.463-3.307a12.009,12.009,0,0,0,1.917-3.324c.251-.793.029-1.143-.784-1.281a2.51,2.51,0,0,0-.427-.026L24.3,21.524a1.078,1.078,0,0,0-1.132.776c-.284.712-.576,1.422-.914,2.109a17.332,17.332,0,0,1-2.822,4.336c-.265.281-.557.636-1,.49-.553-.2-.716-1.113-.707-1.421l0-5.566c-.107-.8-.284-1.15-1.073-1.3H11.643a1.594,1.594,0,0,0-1.361.677c-.206.242-.268.4.155.478a1.671,1.671,0,0,1,1.424,1.529,17.094,17.094,0,0,1,.071,4.006,3.726,3.726,0,0,1-.256,1.145.675.675,0,0,1-1.147.337A4.652,4.652,0,0,1,9.417,27.9a26.913,26.913,0,0,1-2.941-5.451,1.274,1.274,0,0,0-1.2-.9c-1.447-.023-2.894-.027-4.34,0-.87.016-1.13.439-.776,1.228A53.864,53.864,0,0,0,5.775,32.788a13.991,13.991,0,0,0,4.268,4,11.353,11.353,0,0,0,6.343,1.365c1.049-.049,1.364-.322,1.413-1.368a4.631,4.631,0,0,1,.467-2.069.926.926,0,0,1,1.475-.359,4.185,4.185,0,0,1,.8.71c.59.646,1.16,1.311,1.772,1.936a3.428,3.428,0,0,0,2.824,1.15h4.432c.714-.047,1.084-.922.674-1.719A8.533,8.533,0,0,0,29.174,34.895Z" transform="translate(-0.002 -20.944)"/>
  </svg>