<svg xmlns="http://www.w3.org/2000/svg" width="66.83" height="66.884" viewBox="0 0 66.83 66.884"><defs><style>.a{fill:#0044a6;}</style></defs><g transform="translate(0 0)"><path class="a" d="M3931.835,687.426V668.554c0-3.256-2.887-5.551-6.143-5.551h-4.959v-4a1.036,1.036,0,0,0-1.184-1.184h-7.031c-.814,0-1.406.37-1.406,1.184v4H3894.83v-4c0-.814-.962-1.184-1.776-1.184h-7.031c-.814,0-1.554.37-1.554,1.184v4h-4.514a5.569,5.569,0,0,0-5.847,5.551v42.925a5.569,5.569,0,0,0,5.847,5.551h24.719a20.353,20.353,0,0,0,36.264-12.582A21.166,21.166,0,0,0,3931.835,687.426Zm-17.762-26.643h3.7v6.661h-3.7Zm-26.644,0h4.441v6.661h-4.441Zm-10.361,7.771a2.611,2.611,0,0,1,2.887-2.59h4.514v2.812a1.7,1.7,0,0,0,1.554,1.628h7.031a1.923,1.923,0,0,0,1.776-1.628v-2.812h16.282v2.812a1.555,1.555,0,0,0,1.406,1.628h7.031c.814,0,1.184-.814,1.184-1.628v-2.812h4.958c1.628,0,3.182.962,3.182,2.59v9.251h-51.806Zm2.887,45.516a2.611,2.611,0,0,1-2.887-2.59V680.765h51.806v5.107a22.206,22.206,0,0,0-8.215-1.776,20.353,20.353,0,0,0-17.911,29.974h-22.794Zm40.557,7.7A17.392,17.392,0,1,1,3937.83,704.3v.148A17.318,17.318,0,0,1,3920.512,721.766Z" transform="translate(-3874.108 -657.81)"/><path class="a" d="M4218.065,945.874h-6.734v-8.881a1.48,1.48,0,0,0-2.961,0v10.361a1.776,1.776,0,0,0,1.776,1.48h7.918a1.48,1.48,0,1,0,0-2.96Z" transform="translate(-4164.705 -899.236)"/></g></svg>