<svg xmlns="http://www.w3.org/2000/svg" width="57.739" height="65.838" viewBox="0 0 57.739 65.838"><defs><style>.a{fill:#0044a6;}</style></defs><g transform="translate(0 0)"><path class="a" d="M3290.671,718.108a5.362,5.362,0,0,1-5.356-5.356v-2.482h-2.482a5.362,5.362,0,0,1-5.356-5.356V657.626a5.362,5.362,0,0,1,5.356-5.356h39.189a5.362,5.362,0,0,1,5.356,5.356v2.482h2.482a5.362,5.362,0,0,1,5.356,5.356v47.289a5.362,5.362,0,0,1-5.356,5.356Zm-2.481-5.356a2.484,2.484,0,0,0,2.481,2.482h39.189a2.485,2.485,0,0,0,2.483-2.482V665.464a2.485,2.485,0,0,0-2.483-2.482h-29.914V673.3a1.439,1.439,0,0,1-1.437,1.437h-10.32Zm-5.356-57.609a2.485,2.485,0,0,0-2.482,2.482v47.289a2.485,2.485,0,0,0,2.482,2.482h2.482V671.006a5.32,5.32,0,0,1,1.569-3.787l5.542-5.542a5.322,5.322,0,0,1,3.788-1.569H3324.5v-2.482a2.485,2.485,0,0,0-2.482-2.482Zm13.38,7.838a2.465,2.465,0,0,0-1.755.727l-5.542,5.542a2.465,2.465,0,0,0-.726,1.755v.859h8.882v-8.883Z" transform="translate(-3277.478 -652.27)"/><g transform="translate(16.842 31.292)"><rect class="a" width="31.892" height="2.874" rx="1.437"/><rect class="a" width="31.892" height="2.874" rx="1.437" transform="translate(0 8.332)"/><rect class="a" width="31.892" height="2.874" rx="1.437" transform="translate(0 16.664)"/></g></g></svg>