<svg xmlns="http://www.w3.org/2000/svg" xmlns:xlink="http://www.w3.org/1999/xlink" width="85.793" height="28.575" viewBox="0 0 85.793 28.575">
  <defs>
    <style>
      .cls-1 {
        fill: url(#linear-gradient);
      }

      .cls-2 {
        fill: url(#linear-gradient-4);
      }
    </style>
    <linearGradient id="linear-gradient" y1="0.5" x2="1" y2="0.5" gradientUnits="objectBoundingBox">
      <stop offset="0" stop-color="#003f9b"/>
      <stop offset="1" stop-color="#0055d1"/>
    </linearGradient>
    <linearGradient id="linear-gradient-4" y1="0.5" x2="1" y2="0.5" gradientUnits="objectBoundingBox">
      <stop offset="0" stop-color="#ae0000"/>
      <stop offset="1" stop-color="#e80000"/>
    </linearGradient>
  </defs>
  <g id="logo-mob" transform="translate(0 0)">
    <g id="Сгруппировать_225" data-name="Сгруппировать 225" transform="translate(21.356)">
      <path id="Контур_3309" data-name="Контур 3309" class="cls-1" d="M2917.637,946.393a6.125,6.125,0,1,0,6.065,6.228A6.148,6.148,0,0,0,2917.637,946.393Zm-.1,9.333a3.2,3.2,0,1,1,3.244-3.194A3.181,3.181,0,0,1,2917.535,955.727Z" transform="translate(-2867.651 -934.695)"/>
      <path id="Контур_3310" data-name="Контур 3310" class="cls-1" d="M2750.039,1008.828a1.732,1.732,0,0,0-.39,1.874,1.825,1.825,0,0,0,3.045.641c.617-.608,1.236-1.214,1.849-1.827.392-.391.776-.792,1.162-1.188l-2.563-2.573C2752.093,1006.791,2751.052,1007.8,2750.039,1008.828Z" transform="translate(-2734.986 -983.334)"/>
      <path id="Контур_3311" data-name="Контур 3311" class="cls-1" d="M2733.046,887.855q-5.411,0-10.822-.007-7.6,0-15.193.011a2.615,2.615,0,0,1-1.953-.786c-1.442-1.448-2.9-2.882-4.327-4.343a3.338,3.338,0,0,0-2.581-1.094c-1.527.032-3.056.008-4.583.009-.111,0-.222.01-.408.018l9.862,9.865-.047.087h-2.844l-4.327,0a4.186,4.186,0,0,1-3.17-1.328c-.563-.593-1.15-1.164-1.734-1.737a2.248,2.248,0,0,0-1.657-.7c-1.314.016-2.629.032-3.942-.005a2.7,2.7,0,0,0-2.1.888q-3.478,3.5-6.976,6.985-3.366,3.366-6.734,6.732a1.671,1.671,0,0,0-.487,1.114,1.826,1.826,0,0,0,3.159,1.364q2.646-2.626,5.281-5.263,1.432-1.427,2.863-2.855c.177-.177.389-.278.59-.106a.709.709,0,0,1,.187.459c.006.1-.12.216-.208.3-.652.656-1.311,1.3-1.964,1.959-1.518,1.52-3.04,3.036-4.548,4.565a1.828,1.828,0,1,0,2.677,2.49q2.624-2.612,5.237-5.233.652-.651,1.313-1.293a.382.382,0,0,1,.593.009.4.4,0,0,1,.02.576,1.973,1.973,0,0,1-.173.187c-1.585,1.59-3.16,3.191-4.763,4.764a1.881,1.881,0,0,0-.04,2.616,1.822,1.822,0,0,0,2.565.028c1.546-1.516,3.064-3.06,4.6-4.589a.243.243,0,0,0,.046-.357,2.7,2.7,0,0,1,3.4-3.848,8.994,8.994,0,0,1,1.054.675,2.674,2.674,0,0,1,1.887-2.351,2.745,2.745,0,0,1,2.948.839,2.761,2.761,0,0,1,4.854-1.578l.125-.512a2.67,2.67,0,0,1,4.452-1.284c1.225,1.188,2.424,2.4,3.631,3.609q1.362,1.359,2.714,2.727a.568.568,0,0,0,.718.146,6.893,6.893,0,0,1,1.99-7.314,6.44,6.44,0,0,1,7.186-1.369c3.863,1.612,5.1,4.7,4.271,8.738.241-.048.49-.04.708-.106a4.782,4.782,0,0,0,1.719-.568,11.765,11.765,0,0,0,1.192-2.458c.611-1.519,1.222-3.038,1.819-4.563.565-1.445,1.1-2.9,1.657-4.35.219-.574.439-1.146.676-1.765Z" transform="translate(-2669.021 -881.635)"/>
    </g>
    <g id="Сгруппировать_226" data-name="Сгруппировать 226" transform="translate(0 0.016)">
      <path id="Контур_3312" data-name="Контур 3312" class="cls-2" d="M2608.945,951.262c-.012-.064-.047-.184-.083-.3h0c-.047-.152-.1-.3-.1-.3l.008.04-.013-.039h.006c-.234-.469-.423-.92-.673-1.333a6.089,6.089,0,1,0,.923,3.105,3.376,3.376,0,0,0,0-.487S2608.978,951.435,2608.945,951.262Zm-6.05,4.483a3.217,3.217,0,1,1,3.214-3.2A3.212,3.212,0,0,1,2602.895,955.745Zm6.11-3.839h0v0Z" transform="translate(-2588.458 -934.721)"/>
      <path id="Контур_3313" data-name="Контур 3313" class="cls-2" d="M2858.618,964.225c-.288-.283-.567-.574-.853-.859q-2.872-2.871-5.747-5.74a1.881,1.881,0,0,0-2-.427,1.824,1.824,0,0,0-1.113,1.679,1.793,1.793,0,0,0,.6,1.389q1.73,1.731,3.461,3.461c1.05,1.047,2.082,2.112,3.161,3.127a1.8,1.8,0,0,0,2.529-.136A1.855,1.855,0,0,0,2858.618,964.225Z" transform="translate(-2795.051 -943.459)"/>
      <path id="Контур_3314" data-name="Контур 3314" class="cls-2" d="M2777.633,989.7q-3.164-3.155-6.323-6.314a2.118,2.118,0,0,0-1.261-.566,4.958,4.958,0,0,0-.91.331,1.793,1.793,0,0,0-.36,2.842c.641.664,1.3,1.312,1.952,1.965q2.3,2.3,4.6,4.591a1.861,1.861,0,0,0,2.259.324,1.83,1.83,0,0,0,.823-2.041A2.35,2.35,0,0,0,2777.633,989.7Z" transform="translate(-2728.959 -964.555)"/>
      <path id="Контур_3315" data-name="Контур 3315" class="cls-2" d="M2825.105,966.243a1.726,1.726,0,0,0-1.922-.407,1.812,1.812,0,0,0-.61,3.029q2.358,2.362,4.712,4.727c.062.062.125.123.193.186l1.01,1.01a4.679,4.679,0,0,0,.733.71,2.578,2.578,0,0,0,.97.441,1.832,1.832,0,0,0,1.84-.95,1.8,1.8,0,0,0-.318-2.122Q2828.417,969.548,2825.105,966.243Z" transform="translate(-2773.009 -950.534)"/>
      <path id="Контур_3316" data-name="Контур 3316" class="cls-2" d="M2798.309,975.059a1.738,1.738,0,0,0-1.345-.56,2.415,2.415,0,0,0-.506.063,1.839,1.839,0,0,0-.717,3.09c.494.448.947.94,1.419,1.411q2.583,2.582,5.167,5.162a1.685,1.685,0,0,0,1.743.436,1.821,1.821,0,0,0,.748-3.092Q2801.571,978.307,2798.309,975.059Z" transform="translate(-2751.027 -957.738)"/>
      <path id="Контур_3317" data-name="Контур 3317" class="cls-2" d="M2594.266,887.667c.735.657,1.435,1.354,2.124,2.06a3.407,3.407,0,0,0,2.566,1.077c1.624-.009,3.248,0,4.872,0,.077,0,.153-.014.241-.023a.411.411,0,0,0-.04-.087q-4.061-4.065-8.122-8.131a2.573,2.573,0,0,0-1.894-.84c-2.4.006-4.808,0-7.212,0a2.836,2.836,0,0,0-2.07.849c-1.312,1.312-2.641,2.609-3.925,3.948a4.342,4.342,0,0,1-3.364,1.428c-6.1-.042-12.2-.007-18.3-.026a3.844,3.844,0,0,0-3.154,1.509,9.813,9.813,0,0,0-1.534,2.918c-.04.109-.108.219-.147.332l-1.075,2.8-2.435,6.214h7.735a7.111,7.111,0,0,1-.158-3.73,7.055,7.055,0,0,1,4.878-5.175,7.091,7.091,0,0,1,8.5,4.058l.282.913a7.936,7.936,0,0,1-.053,3.976.95.95,0,0,0,.4-.221q3.276-3.256,6.546-6.519,3.455-3.447,6.9-6.9a3.435,3.435,0,0,1,2.6-1.062c1.346.022,2.692.005,4.039.005A2.624,2.624,0,0,1,2594.266,887.667Z" transform="translate(-2550.797 -881.721)"/>
    </g>
  </g>
</svg>
