<svg xmlns="http://www.w3.org/2000/svg" width="36.769" height="36.769">
    <path data-name="Контур 3353" d="M37.726 27.631a23.206 23.206 0 0 1-7.292-1.164 2.085 2.085 0 0 0-2.084.49l-4.494 4.494a30.733 30.733 0 0 1-13.461-13.462l4.494-4.514a1.961 1.961 0 0 0 .511-2.043 23.206 23.206 0 0 1-1.165-7.292 2.049 2.049 0 0 0-2.043-2.04H5.043A2.049 2.049 0 0 0 3 4.14a34.723 34.723 0 0 0 34.726 34.726 2.049 2.049 0 0 0 2.043-2.043v-7.15a2.049 2.049 0 0 0-2.043-2.042z" transform="translate(-3 -2.097)" style="fill:#0044a6"/>
</svg>
