<svg xmlns="http://www.w3.org/2000/svg" xmlns:xlink="http://www.w3.org/1999/xlink" width="316.75" height="48.493" viewBox="0 0 316.75 48.493">
  <defs>
    <linearGradient id="linear-gradient" y1="0.5" x2="1" y2="0.5" gradientUnits="objectBoundingBox">
      <stop offset="0" stop-color="#003f9b"/>
      <stop offset="1" stop-color="#0055d1"/>
    </linearGradient>
    <linearGradient id="linear-gradient-4" y1="0.5" x2="1" y2="0.5" gradientUnits="objectBoundingBox">
      <stop offset="0" stop-color="#ae0000"/>
      <stop offset="1" stop-color="#e80000"/>
    </linearGradient>
  </defs>
  <g id="лого" transform="translate(0 0)">
    <g id="Сгруппировать_181" data-name="Сгруппировать 181" transform="translate(0 0)">
      <g id="Сгруппировать_179" data-name="Сгруппировать 179" transform="translate(36.213)">
        <path id="Контур_3222" data-name="Контур 3222" d="M1291.026,901.269a10.387,10.387,0,1,0,10.284,10.56A10.426,10.426,0,0,0,1291.026,901.269Zm-.172,15.827a5.435,5.435,0,1,1,5.5-5.417A5.395,5.395,0,0,1,1290.855,917.1Z" transform="translate(-1206.264 -881.404)" fill="url(#linear-gradient)"/>
        <path id="Контур_3223" data-name="Контур 3223" d="M1119.472,965.841a2.94,2.94,0,0,0-.661,3.177,3.094,3.094,0,0,0,5.163,1.087c1.047-1.031,2.1-2.06,3.136-3.1.665-.664,1.314-1.343,1.971-2.015l-4.347-4.363C1122.955,962.387,1121.19,964.091,1119.472,965.841Z" transform="translate(-1093.947 -922.573)" fill="url(#linear-gradient)"/>
        <path id="Контур_3224" data-name="Контур 3224" d="M1146.667,847.067q-9.175-.007-18.35-.013-12.882,0-25.764.019a4.434,4.434,0,0,1-3.311-1.334c-2.445-2.458-4.915-4.891-7.337-7.371a5.662,5.662,0,0,0-4.378-1.856c-2.59.055-5.182.014-7.772.016-.188,0-.377.016-.692.03l16.723,16.743-.08.148h-4.823q-3.669,0-7.338,0a7.094,7.094,0,0,1-5.375-2.253c-.955-1.006-1.95-1.976-2.941-2.947a3.809,3.809,0,0,0-2.81-1.187c-2.228.028-4.458.054-6.685-.008a4.585,4.585,0,0,0-3.555,1.507q-5.9,5.945-11.829,11.855-5.708,5.714-11.419,11.424a2.836,2.836,0,0,0-.827,1.89,3.1,3.1,0,0,0,5.357,2.315q4.487-4.457,8.955-8.932,2.428-2.422,4.855-4.846c.3-.3.659-.471,1-.179a1.2,1.2,0,0,1,.318.779c.01.165-.2.366-.352.516-1.105,1.113-2.223,2.214-3.331,3.325-2.574,2.579-5.154,5.152-7.711,7.747a3.1,3.1,0,1,0,4.539,4.226q4.449-4.433,8.881-8.882,1.1-1.105,2.225-2.2a.646.646,0,0,1,1.005.015.671.671,0,0,1,.035.977,3.485,3.485,0,0,1-.294.317c-2.689,2.7-5.358,5.417-8.077,8.085a3.2,3.2,0,0,0-.069,4.44,3.088,3.088,0,0,0,4.35.049c2.62-2.574,5.2-5.193,7.8-7.789a.412.412,0,0,0,.078-.606,4.576,4.576,0,0,1,5.765-6.531,15.251,15.251,0,0,1,1.788,1.145,4.537,4.537,0,0,1,3.2-3.991,4.652,4.652,0,0,1,5,1.424,4.712,4.712,0,0,1,3.272-4.109c1.959-.642,3.541.079,4.958,1.431.084-.346.148-.608.212-.869a4.527,4.527,0,0,1,7.549-2.178c2.077,2.016,4.11,4.078,6.158,6.124q2.308,2.307,4.6,4.628a.963.963,0,0,0,1.219.248c-1.293-4.832-.253-9.057,3.374-12.413a10.914,10.914,0,0,1,12.185-2.323c6.551,2.736,8.648,7.97,7.243,14.829.408-.081.832-.067,1.2-.179a8.108,8.108,0,0,0,2.916-.964c.719-.686,2.009-4.138,2.021-4.171,1.036-2.578,2.072-5.156,3.083-7.744.958-2.453,1.874-4.922,2.81-7.383.37-.973.744-1.945,1.146-3Z" transform="translate(-1038.099 -836.511)" fill="url(#linear-gradient)"/>
      </g>
      <g id="Сгруппировать_180" data-name="Сгруппировать 180" transform="translate(0 0.026)">
        <path id="Контур_3225" data-name="Контур 3225" d="M986.5,909.516c-.021-.109-.081-.312-.141-.508h0c-.08-.257-.162-.5-.162-.5l.013.067-.023-.066h.01c-.4-.8-.718-1.559-1.141-2.26a10.327,10.327,0,1,0,1.564,5.266,5.8,5.8,0,0,0,0-.825S986.556,909.809,986.5,909.516Zm-10.259,7.6a5.455,5.455,0,1,1,5.451-5.421A5.446,5.446,0,0,1,976.241,917.118Zm10.36-6.51v0Z" transform="translate(-951.76 -881.44)" fill="url(#linear-gradient-4)"/>
        <path id="Контур_3226" data-name="Контур 3226" d="M1234.459,924.078c-.489-.479-.963-.974-1.447-1.457q-4.871-4.868-9.745-9.734a3.189,3.189,0,0,0-3.4-.724,3.091,3.091,0,0,0-1.886,2.847,3.041,3.041,0,0,0,1.023,2.355q2.934,2.936,5.87,5.87c1.78,1.775,3.53,3.582,5.361,5.3a3.05,3.05,0,0,0,4.287-.23A3.147,3.147,0,0,0,1234.459,924.078Z" transform="translate(-1126.666 -888.836)" fill="url(#linear-gradient-4)"/>
        <path id="Контур_3227" data-name="Контур 3227" d="M1153.249,949.359q-5.365-5.35-10.724-10.707a3.588,3.588,0,0,0-2.138-.961,8.456,8.456,0,0,0-1.543.561,3.041,3.041,0,0,0-.611,4.818c1.088,1.126,2.2,2.225,3.31,3.332q3.894,3.9,7.792,7.785a3.155,3.155,0,0,0,3.831.549,3.1,3.1,0,0,0,1.4-3.461A3.985,3.985,0,0,0,1153.249,949.359Z" transform="translate(-1070.711 -906.687)" fill="url(#linear-gradient-4)"/>
        <path id="Контур_3228" data-name="Контур 3228" d="M1196.345,921.494a2.927,2.927,0,0,0-3.259-.69,3.073,3.073,0,0,0-1.034,5.136q4,4.005,7.99,8.016c.1.1.212.207.327.315l1.713,1.712a7.941,7.941,0,0,0,1.243,1.2,4.373,4.373,0,0,0,1.645.747,3.108,3.108,0,0,0,3.12-1.611,3.062,3.062,0,0,0-.539-3.6Q1201.96,927.1,1196.345,921.494Z" transform="translate(-1108.005 -894.816)" fill="url(#linear-gradient-4)"/>
        <path id="Контур_3229" data-name="Контур 3229" d="M1169.571,930.326a2.945,2.945,0,0,0-2.281-.95,4.088,4.088,0,0,0-.859.107,3.119,3.119,0,0,0-1.215,5.24c.837.759,1.605,1.594,2.405,2.393q4.38,4.377,8.763,8.753a2.858,2.858,0,0,0,2.957.74,3.088,3.088,0,0,0,1.267-5.244Q1175.1,935.833,1169.571,930.326Z" transform="translate(-1089.394 -900.916)" fill="url(#linear-gradient-4)"/>
        <path id="Контур_3230" data-name="Контур 3230" d="M993.586,846.68c1.246,1.114,2.433,2.3,3.6,3.493a5.774,5.774,0,0,0,4.352,1.827c2.754-.015,5.507,0,8.261-.005.13,0,.26-.023.408-.038a.655.655,0,0,0-.068-.147q-6.886-6.894-13.773-13.788a4.362,4.362,0,0,0-3.211-1.424c-4.076.01-8.152,0-12.229.006a4.81,4.81,0,0,0-3.511,1.44c-2.225,2.225-4.478,4.424-6.656,6.694a7.362,7.362,0,0,1-5.7,2.422c-10.344-.071-20.689-.012-31.033-.045a6.52,6.52,0,0,0-5.349,2.558,16.661,16.661,0,0,0-2.6,4.948c-.068.184-.185.371-.25.562L924,859.926l-4.128,10.536h13.116a12.05,12.05,0,0,1-.267-6.324A11.964,11.964,0,0,1,941,855.363a12.025,12.025,0,0,1,14.406,6.881l.478,1.548a13.449,13.449,0,0,1-.09,6.742,1.608,1.608,0,0,0,.677-.375q5.556-5.522,11.1-11.054,5.858-5.846,11.7-11.7a5.823,5.823,0,0,1,4.416-1.8c2.282.038,4.565.008,6.848.009A4.45,4.45,0,0,1,993.586,846.68Z" transform="translate(-919.875 -836.597)" fill="url(#linear-gradient-4)"/>
      </g>
    </g>
    <g id="Сгруппировать_184" data-name="Сгруппировать 184" transform="translate(170.657 11.082)">
      <g id="Сгруппировать_182" data-name="Сгруппировать 182" transform="translate(0.192)">
        <path id="Контур_3231" data-name="Контур 3231" d="M1494.479,890.7h-4.2l-1.544-4.55h-6.307l-1.517,4.55h-4.1l6.387-17.27h5.056Zm-6.653-7.318-2.182-6.493h-.106l-2.182,6.493Z" transform="translate(-1476.81 -873.167)"/>
        <path id="Контур_3232" data-name="Контур 3232" d="M1557.144,884.183v2.661a3.065,3.065,0,0,1-1.73,3.007,12.048,12.048,0,0,1-5.136.852h-7.185v-17.27h7q3.672,0,4.976.825a3.132,3.132,0,0,1,1.3,2.874v2.129a2.012,2.012,0,0,1-.585,1.384,2.859,2.859,0,0,1-1.33.852v.133a3.351,3.351,0,0,1,1.823.852A2.206,2.206,0,0,1,1557.144,884.183Zm-4.763-5.455v-.851a1.433,1.433,0,0,0-.4-1.171,3.731,3.731,0,0,0-1.969-.319h-2.767v4.071h2.848a3.085,3.085,0,0,0,1.876-.372A1.785,1.785,0,0,0,1552.381,878.728Zm.612,7.557V884.9a1.657,1.657,0,0,0-.492-1.357,2.846,2.846,0,0,0-1.743-.4h-3.512v4.6h2.954a4.848,4.848,0,0,0,2.155-.346A1.176,1.176,0,0,0,1552.993,886.285Z" transform="translate(-1522.791 -873.167)"/>
        <path id="Контур_3233" data-name="Контур 3233" d="M1611.028,876.387h-5.3V890.7h-4.151V876.387h-5.322v-2.954h14.768Z" transform="translate(-1559.671 -873.167)"/>
        <path id="Контур_3234" data-name="Контур 3234" d="M1669.812,877.806v7.557a4.074,4.074,0,0,1-.771,2.5,4.678,4.678,0,0,1-2.076,1.557,12.5,12.5,0,0,1-2.608.732,17.185,17.185,0,0,1-2.768.213,18.386,18.386,0,0,1-2.594-.173,13.734,13.734,0,0,1-2.581-.652,4.556,4.556,0,0,1-2.182-1.543,4.216,4.216,0,0,1-.812-2.634v-7.557a4.581,4.581,0,0,1,2.036-3.885,7.581,7.581,0,0,1,2.036-.865,11.914,11.914,0,0,1,2.129-.413q.931-.079,1.969-.08,1.064,0,2.009.08a11.893,11.893,0,0,1,2.142.413,7.815,7.815,0,0,1,2.05.865,4.359,4.359,0,0,1,1.437,1.53A4.574,4.574,0,0,1,1669.812,877.806Zm-4.151,7.557V877.78a1.8,1.8,0,0,0-1.025-1.756,7.055,7.055,0,0,0-3.02-.506,7.211,7.211,0,0,0-3.033.492,1.794,1.794,0,0,0-1.011,1.77v7.584a1.729,1.729,0,0,0,.346,1.1,1.878,1.878,0,0,0,1,.625,7.585,7.585,0,0,0,1.25.253,16.455,16.455,0,0,0,2.954,0,7.267,7.267,0,0,0,1.237-.253,1.8,1.8,0,0,0,.971-.625A1.779,1.779,0,0,0,1665.661,885.363Z" transform="translate(-1599.323 -872.564)"/>
        <path id="Контур_3235" data-name="Контур 3235" d="M1730.871,883.421v2.847q0,4.1-6.918,4.1a40.218,40.218,0,0,1-6.333-.479V886.72a31.209,31.209,0,0,0,5.828.692,5.982,5.982,0,0,0,2.475-.386q.8-.386.8-1v-2a1.022,1.022,0,0,0-.718-1.025,7.724,7.724,0,0,0-2.5-.279h-3.672v-2.954h3.672a4.94,4.94,0,0,0,2.009-.293,1.013,1.013,0,0,0,.6-.985v-1.623a1.072,1.072,0,0,0-.652-1.051,6.611,6.611,0,0,0-2.461-.306q-.319,0-5.055.319V872.8q3.645-.24,5.481-.239a13.476,13.476,0,0,1,5,.732,2.648,2.648,0,0,1,1.757,2.648v2.847a1.83,1.83,0,0,1-.519,1.331,2.611,2.611,0,0,1-1.211.718Q1730.871,881.718,1730.871,883.421Z" transform="translate(-1643.857 -872.564)"/>
        <path id="Контур_3236" data-name="Контур 3236" d="M1790.427,890.7h-4.151v-7.4h-7.344v7.4h-4.151v-17.27h4.151v6.918h7.344v-6.918h4.151Z" transform="translate(-1683.51 -873.167)"/>
        <path id="Контур_3237" data-name="Контур 3237" d="M1852.131,890.7h-4.2l-1.544-4.55h-6.307l-1.516,4.55h-4.1l6.386-17.27h5.056Zm-6.652-7.318-2.182-6.493h-.106l-2.182,6.493Z" transform="translate(-1724.91 -873.167)"/>
        <path id="Контур_3238" data-name="Контур 3238" d="M1900.746,890.7v-17.27h4.071v6.892a3.827,3.827,0,0,0,1.411-.186,1.9,1.9,0,0,0,.8-.8l1.836-3.034a4.612,4.612,0,0,1,5.136-2.874h1.89v2.954H1914.8a4.444,4.444,0,0,0-1.7.2,3.551,3.551,0,0,0-.984,1.184l-1.064,1.729a5.417,5.417,0,0,1-.918,1.158,3.482,3.482,0,0,1-1.025.6,4.5,4.5,0,0,1,1.73,1.144,14.84,14.84,0,0,1,2.182,2.661l3.779,5.641h-4.816l-3.3-5.083a6.3,6.3,0,0,0-1.77-2.009,4.315,4.315,0,0,0-2.089-.412v7.5Z" transform="translate(-1770.89 -873.167)"/>
      </g>
      <g id="Сгруппировать_183" data-name="Сгруппировать 183" transform="translate(0 21.327)">
        <path id="Контур_3239" data-name="Контур 3239" d="M1483.324,956.426h-1.16l-.849-2.262h-3.192l-.838,2.262h-1.1l2.962-7.451h1.286Zm-2.285-3.031-1.263-3.364h-.1l-1.263,3.364Z" transform="translate(-1476.183 -946.897)"/>
        <path id="Контур_3240" data-name="Контур 3240" d="M1509.527,953.693v1.252a1.194,1.194,0,0,1-.62,1.148,4.523,4.523,0,0,1-2.021.333h-2.744v-7.451h2.664a4.638,4.638,0,0,1,1.51.2,1.288,1.288,0,0,1,.712.482,1.45,1.45,0,0,1,.167.735v1a.913.913,0,0,1-.258.7,1.631,1.631,0,0,1-.763.356v.046a2.067,2.067,0,0,1,.976.413A.979.979,0,0,1,1509.527,953.693Zm-1.378-2.342v-.873a.626.626,0,0,0-.31-.6,2.263,2.263,0,0,0-1.033-.173h-1.55v2.526h1.584a1.8,1.8,0,0,0,1.01-.212A.767.767,0,0,0,1508.15,951.351Zm.264,3.548v-1.125a.836.836,0,0,0-.12-.477.654.654,0,0,0-.379-.252,2.4,2.4,0,0,0-.459-.092q-.2-.018-.568-.018h-1.63v2.721h1.63a2.875,2.875,0,0,0,1.182-.172A.6.6,0,0,0,1508.414,954.9Z" transform="translate(-1495.578 -946.897)"/>
        <path id="Контур_3241" data-name="Контур 3241" d="M1532.61,956.426h-1.16l-.85-2.262h-3.192l-.838,2.262h-1.1l2.962-7.451h1.286Zm-2.285-3.031-1.263-3.364h-.1l-1.263,3.364Z" transform="translate(-1510.372 -946.897)"/>
        <path id="Контур_3242" data-name="Контур 3242" d="M1558.493,950.444v1.55a1.4,1.4,0,0,1-.74,1.349,4.514,4.514,0,0,1-2.1.4h-1.114v2.687h-1.114v-7.451h2.434q.46,0,.792.023a4.507,4.507,0,0,1,.706.109,1.728,1.728,0,0,1,.6.241,1.269,1.269,0,0,1,.379.43A1.34,1.34,0,0,1,1558.493,950.444Zm-1.091,1.493v-1.355a.792.792,0,0,0-.161-.511.85.85,0,0,0-.459-.281,3.012,3.012,0,0,0-.5-.1c-.134-.011-.3-.017-.5-.017h-1.251v3.364h1.274a2.385,2.385,0,0,0,1.131-.247A.886.886,0,0,0,1557.4,951.937Z" transform="translate(-1529.768 -946.897)"/>
        <path id="Контур_3243" data-name="Контур 3243" d="M1577.111,956.426h-1.343v-7.451h1.021v6.153l4.007-6.153h1.343v7.451h-1.022v-6.257Z" transform="translate(-1545.264 -946.897)"/>
        <path id="Контур_3244" data-name="Контур 3244" d="M1605.146,951.72H1603.8v-7.451h1.022v6.153l4.007-6.153h1.344v7.451h-1.022v-6.257Zm3.329-9.529a1.5,1.5,0,0,1-.5,1.051,1.663,1.663,0,0,1-2.181,0,1.458,1.458,0,0,1-.488-1.051h.987a1.887,1.887,0,0,0,.31.608.7.7,0,0,0,.528.161.716.716,0,0,0,.511-.178,1.35,1.35,0,0,0,.316-.591Z" transform="translate(-1564.712 -942.191)"/>
        <path id="Контур_3245" data-name="Контур 3245" d="M1638.064,956.426h-1.114V952.97h-3.961v3.456h-1.114v-7.451h1.114v3.214h3.961v-3.214h1.114Z" transform="translate(-1584.186 -946.897)"/>
        <path id="Контур_3246" data-name="Контур 3246" d="M1659.311,948.975h1.113v3.214h1.114q.562,0,.948.029a4.9,4.9,0,0,1,.769.12,1.811,1.811,0,0,1,.614.253,1.137,1.137,0,0,1,.367.442,1.513,1.513,0,0,1,.138.672v1.1q0,1.619-2.629,1.619h-2.434Zm3.972,5.786v-.93a.714.714,0,0,0-.35-.712,3.119,3.119,0,0,0-1.245-.172h-1.275v2.721h1.252q.3,0,.5-.017a2.991,2.991,0,0,0,.5-.1.848.848,0,0,0,.459-.281A.792.792,0,0,0,1663.283,954.761Zm3.352,1.665h-1.114v-7.451h1.114Z" transform="translate(-1603.217 -946.897)"/>
        <path id="Контур_3247" data-name="Контур 3247" d="M1695.577,956.426h-5.12v-7.451h5.006v.781h-3.892v2.434h3.513v.781h-3.513v2.675h4.006Z" transform="translate(-1624.823 -946.897)"/>
        <path id="Контур_3248" data-name="Контур 3248" d="M1723.815,956.426h-1.125v-7.451h1.125V952.2a1.438,1.438,0,0,0,.643-.109,1.257,1.257,0,0,0,.425-.454l1.021-1.6a2.991,2.991,0,0,1,.763-.9,2.422,2.422,0,0,1,1.108-.172h.516v.781h-.585a.767.767,0,0,0-.511.189,2.59,2.59,0,0,0-.488.626l-.723,1.194a2.3,2.3,0,0,1-.431.568,1.235,1.235,0,0,1-.534.27,5.605,5.605,0,0,1,1.688,1.5l2.09,2.319h-1.424l-2.055-2.319a6.179,6.179,0,0,0-.947-.941,1.011,1.011,0,0,0-.557-.2Z" transform="translate(-1647.182 -946.897)"/>
        <path id="Контур_3249" data-name="Контур 3249" d="M1751.72,950.724v3.536a1.775,1.775,0,0,1-.293,1.033,1.707,1.707,0,0,1-.8.626,4.759,4.759,0,0,1-1,.281,6.653,6.653,0,0,1-1.067.08q-3.123,0-3.123-2.02v-3.525q0-2.135,3.123-2.135Q1751.719,948.6,1751.72,950.724Zm-1.079,3.524V950.7q0-1.378-2.066-1.378a5.069,5.069,0,0,0-.77.052,2.4,2.4,0,0,0-.643.2,1.089,1.089,0,0,0-.482.425,1.332,1.332,0,0,0-.172.706v3.547q0,1.286,2.078,1.286Q1750.641,955.534,1750.641,954.248Z" transform="translate(-1662.964 -946.637)"/>
        <path id="Контур_3250" data-name="Контур 3250" d="M1780.457,956.426h-.976v-6.3h-.058l-2.4,6.3h-1l-2.468-6.3h-.058v6.3h-1v-7.451h1.664l2.388,6.2.035.012,2.262-6.211h1.607Z" transform="translate(-1681.736 -946.897)"/>
        <path id="Контур_3251" data-name="Контур 3251" d="M1807.089,956.426h-1.343v-7.451h1.021v6.153l4.007-6.153h1.343v7.451H1811.1v-6.257Z" transform="translate(-1704.798 -946.897)"/>
        <path id="Контур_3252" data-name="Контур 3252" d="M1838.218,956.036a9.751,9.751,0,0,1-2.089.218q-3.134,0-3.134-2.02V950.7q0-2.136,3.134-2.136a9.552,9.552,0,0,1,2.043.218v.827a8.378,8.378,0,0,0-2.021-.276,5.086,5.086,0,0,0-.769.052,2.9,2.9,0,0,0-.654.184,1.012,1.012,0,0,0-.494.413,1.33,1.33,0,0,0-.172.706v3.49q0,1.286,2.135,1.286a8.374,8.374,0,0,0,2.021-.275Z" transform="translate(-1723.699 -946.61)"/>
        <path id="Контур_3253" data-name="Контур 3253" d="M1860.294,956.036a9.759,9.759,0,0,1-2.09.218q-3.134,0-3.134-2.02V950.7q0-2.136,3.134-2.136a9.552,9.552,0,0,1,2.043.218v.827a8.378,8.378,0,0,0-2.021-.276,5.089,5.089,0,0,0-.769.052,2.9,2.9,0,0,0-.654.184,1.011,1.011,0,0,0-.494.413,1.332,1.332,0,0,0-.172.706v3.49q0,1.286,2.135,1.286a8.382,8.382,0,0,0,2.021-.275Z" transform="translate(-1739.014 -946.61)"/>
        <path id="Контур_3254" data-name="Контур 3254" d="M1882.45,956.426h-1.16l-.849-2.262h-3.192l-.838,2.262h-1.1l2.962-7.451h1.286Zm-2.285-3.031-1.263-3.364h-.1l-1.263,3.364Z" transform="translate(-1753.053 -946.897)"/>
        <path id="Контур_3255" data-name="Контур 3255" d="M1908.332,950.444v1.55a1.4,1.4,0,0,1-.74,1.349,4.514,4.514,0,0,1-2.095.4h-1.114v2.687h-1.114v-7.451h2.434q.46,0,.792.023a4.506,4.506,0,0,1,.706.109,1.729,1.729,0,0,1,.6.241,1.26,1.26,0,0,1,.379.43A1.335,1.335,0,0,1,1908.332,950.444Zm-1.091,1.493v-1.355a.792.792,0,0,0-.161-.511.851.851,0,0,0-.459-.281,3.007,3.007,0,0,0-.5-.1c-.134-.011-.3-.017-.5-.017h-1.251v3.364h1.274a2.386,2.386,0,0,0,1.131-.247A.887.887,0,0,0,1907.241,951.937Z" transform="translate(-1772.449 -946.897)"/>
        <path id="Контур_3256" data-name="Контур 3256" d="M1925.57,948.975h1.114v3.214h1.113q.563,0,.947.029a4.9,4.9,0,0,1,.769.12,1.808,1.808,0,0,1,.614.253,1.134,1.134,0,0,1,.367.442,1.515,1.515,0,0,1,.138.672v1.1q0,1.619-2.629,1.619h-2.434Zm3.972,5.786v-.93a.714.714,0,0,0-.35-.712,3.119,3.119,0,0,0-1.246-.172h-1.274v2.721h1.252q.3,0,.5-.017a3.011,3.011,0,0,0,.5-.1.852.852,0,0,0,.459-.281A.8.8,0,0,0,1929.542,954.761Zm3.353,1.665h-1.114v-7.451h1.114Z" transform="translate(-1787.919 -946.897)"/>
      </g>
    </g>
  </g>
</svg>
